# xmcd
#
# Track frame offsets: 
#        150
#        13109
#        27912
#        55457
#        75579
#        93219
#        119794
#        136749
#        160921
#        178554
#        191809
#
# Disc length: 2752 seconds
#
# Revision: 2
# Processed by: cddbd v1.5.2PL0 Copyright (c) Steve Scherf et al.
# Submitted via: ExactAudioCopy v0.99pb4
#
DISCID=8e0abe0b
DTITLE=Downchild - I Need a Hat
DYEAR=2009
DGENRE=Blues
TTITLE0=This Must Be Love
TTITLE1=I Need a Hat
TTITLE2=Somebody Lied
TTITLE3=You Don't Love Me
TTITLE4=Rendezvous
TTITLE5=Down in the Delta
TTITLE6=Time to Say Good Bye
TTITLE7=What Was I Thinking
TTITLE8=These Thoughts Keep Marching
TTITLE9=Some More of That
TTITLE10=EL Stew
EXTD=
EXTT0=
EXTT1=
EXTT2=
EXTT3=
EXTT4=
EXTT5=
EXTT6=
EXTT7=
EXTT8=
EXTT9=
EXTT10=
PLAYORDER=
